<svg width="50" height="50" viewBox="0 0 50 50" fill="none" xmlns="http://www.w3.org/2000/svg">
<path d="M44.9123 6.4947C44.5356 6.16932 44.077 5.95323 43.5863 5.86984C43.0955 5.78646 42.5913 5.83896 42.1283 6.02165L6.08201 20.1828C5.53222 20.3988 5.06714 20.787 4.75638 21.2893C4.44562 21.7916 4.30588 22.3811 4.35808 22.9695C4.41028 23.5579 4.65161 24.1135 5.04596 24.5533C5.4403 24.9931 5.96645 25.2933 6.54568 25.4091L16.0156 27.3029V39.0593C16.015 39.6004 16.1751 40.1295 16.4755 40.5795C16.7758 41.0296 17.203 41.3803 17.7029 41.5874C18.2028 41.7944 18.7529 41.8484 19.2835 41.7426C19.8141 41.6367 20.3014 41.3758 20.6836 40.9927L26.0096 35.6666L33.9754 42.6767C34.4708 43.1166 35.1101 43.3599 35.7726 43.3607C36.0607 43.3603 36.3469 43.3149 36.6209 43.2261C37.0728 43.0828 37.4793 42.8235 37.7997 42.474C38.1201 42.1245 38.3433 41.6972 38.447 41.2345L45.7933 9.17731C45.9052 8.69232 45.8823 8.18596 45.727 7.71307C45.5718 7.24017 45.2901 6.81877 44.9125 6.4945L44.9123 6.4947ZM6.69275 22.7623C6.6801 22.6776 6.69788 22.5911 6.74293 22.5183C6.78799 22.4454 6.8574 22.3909 6.93885 22.3644L37.1008 10.515L16.9158 25.0929L7.00525 23.1107C6.92036 23.099 6.84236 23.0576 6.78514 22.9938C6.72792 22.93 6.69519 22.8479 6.69275 22.7623ZM19.0262 39.3357C18.9715 39.3903 18.9019 39.4275 18.8262 39.4426C18.7504 39.4576 18.6719 39.4499 18.6005 39.4204C18.5291 39.3908 18.4681 39.3407 18.4252 39.2765C18.3823 39.2123 18.3594 39.1368 18.3594 39.0595V28.9345L24.2467 34.1154L19.0262 39.3357ZM36.1625 40.7111C36.1474 40.7771 36.1154 40.838 36.0697 40.8879C36.024 40.9379 35.9661 40.975 35.9017 40.9958C35.8373 41.0166 35.7685 41.0203 35.7023 41.0066C35.636 40.9928 35.5744 40.9621 35.5236 40.9174L19.0638 26.4328L43.4748 8.8027L36.1625 40.7111Z" fill="white"/>
</svg>
