<svg width="42" height="39" viewBox="0 0 42 39" fill="none" xmlns="http://www.w3.org/2000/svg">
<path d="M40.9123 1.49445C40.5356 1.16907 40.077 0.952983 39.5863 0.869598C39.0955 0.786212 38.5913 0.838711 38.1283 1.02141L2.08201 15.1825C1.53222 15.3985 1.06714 15.7867 0.75638 16.289C0.445618 16.7914 0.305882 17.3808 0.358082 17.9692C0.410282 18.5576 0.651611 19.1133 1.04596 19.5531C1.4403 19.9928 1.96645 20.2931 2.54568 20.4089L12.0156 22.3027V34.0591C12.015 34.6002 12.1751 35.1292 12.4755 35.5793C12.7758 36.0293 13.203 36.3801 13.7029 36.5871C14.2028 36.7942 14.7529 36.8482 15.2835 36.7423C15.8141 36.6365 16.3014 36.3755 16.6836 35.9925L22.0096 30.6663L29.9754 37.6765C30.4708 38.1164 31.1101 38.3597 31.7726 38.3605C32.0607 38.3601 32.3469 38.3147 32.6209 38.2259C33.0728 38.0826 33.4793 37.8232 33.7997 37.4738C34.1201 37.1243 34.3433 36.6969 34.447 36.2343L41.7933 4.17707C41.9052 3.69208 41.8823 3.18572 41.727 2.71282C41.5718 2.23993 41.2901 1.81853 40.9125 1.49426L40.9123 1.49445ZM2.69275 17.762C2.6801 17.6773 2.69788 17.5909 2.74293 17.518C2.78799 17.4452 2.8574 17.3907 2.93885 17.3642L33.1008 5.51476L12.9158 20.0927L3.00525 18.1105C2.92036 18.0988 2.84236 18.0573 2.78514 17.9935C2.72792 17.9297 2.69519 17.8477 2.69275 17.762ZM15.0262 34.3355C14.9715 34.3901 14.9019 34.4273 14.8262 34.4423C14.7504 34.4574 14.6719 34.4497 14.6005 34.4201C14.5291 34.3905 14.4681 34.3405 14.4252 34.2763C14.3823 34.212 14.3594 34.1365 14.3594 34.0593V23.9343L20.2467 29.1152L15.0262 34.3355ZM32.1625 35.7109C32.1474 35.7768 32.1154 35.8378 32.0697 35.8877C32.024 35.9376 31.9661 35.9748 31.9017 35.9956C31.8373 36.0164 31.7685 36.0201 31.7023 36.0063C31.636 35.9926 31.5744 35.9618 31.5236 35.9171L15.0638 21.4325L39.4748 3.80246L32.1625 35.7109Z" fill="white"/>
</svg>
