<svg width="38" height="38" viewBox="0 0 38 38" fill="none" xmlns="http://www.w3.org/2000/svg">
<path d="M19 3.62813C24.0063 3.62813 24.6 3.64687 26.5766 3.7375C27.7654 3.75161 28.9429 3.96989 30.0578 4.38281C30.8667 4.69483 31.6012 5.17273 32.2143 5.78575C32.8273 6.39877 33.3052 7.13334 33.6172 7.94219C34.0301 9.05708 34.2484 10.2346 34.2625 11.4234C34.3531 13.4 34.3719 13.9937 34.3719 19.0016C34.3719 24.0094 34.3531 24.6 34.2625 26.5766C34.2484 27.7654 34.0301 28.9429 33.6172 30.0578C33.3052 30.8667 32.8273 31.6012 32.2143 32.2143C31.6012 32.8273 30.8667 33.3052 30.0578 33.6172C28.9429 34.0301 27.7654 34.2484 26.5766 34.2625C24.6 34.3531 24.0063 34.3719 19 34.3719C13.9937 34.3719 13.4 34.3531 11.4234 34.2625C10.2346 34.2484 9.05708 34.0301 7.94219 33.6172C7.13334 33.3052 6.39877 32.8273 5.78575 32.2143C5.17273 31.6012 4.69483 30.8667 4.38281 30.0578C3.96989 28.9429 3.75161 27.7654 3.7375 26.5766C3.64687 24.6 3.62813 24.0063 3.62813 19C3.62813 13.9937 3.64687 13.4 3.7375 11.4234C3.75161 10.2346 3.96989 9.05708 4.38281 7.94219C4.69483 7.13334 5.17273 6.39877 5.78575 5.78575C6.39877 5.17273 7.13334 4.69483 7.94219 4.38281C9.05708 3.96989 10.2346 3.75161 11.4234 3.7375C13.4 3.64687 13.9937 3.62813 19 3.62813ZM19 0.25C13.9078 0.25 13.2688 0.271875 11.2688 0.3625C9.71371 0.3939 8.17525 0.688702 6.71875 1.23438C5.47301 1.71609 4.34165 2.45278 3.39722 3.39722C2.45278 4.34165 1.71609 5.47301 1.23438 6.71875C0.688529 8.17574 0.393724 9.71475 0.3625 11.2703C0.271875 13.2703 0.25 13.9062 0.25 19C0.25 24.0938 0.271875 24.7313 0.3625 26.7313C0.3939 28.2863 0.688702 29.8248 1.23438 31.2812C1.71609 32.527 2.45278 33.6583 3.39722 34.6028C4.34165 35.5472 5.47301 36.2839 6.71875 36.7656C8.17574 37.3115 9.71475 37.6063 11.2703 37.6375C13.2703 37.7281 13.9078 37.75 19 37.75C24.0922 37.75 24.7313 37.7281 26.7313 37.6375C28.2868 37.6063 29.8258 37.3115 31.2828 36.7656C32.5286 36.2839 33.6599 35.5472 34.6043 34.6028C35.5488 33.6583 36.2855 32.527 36.7672 31.2812C37.3125 29.8242 37.6068 28.2852 37.6375 26.7297C37.7281 24.7297 37.75 24.0938 37.75 19C37.75 13.9062 37.7281 13.2688 37.6375 11.2688C37.6061 9.71371 37.3113 8.17525 36.7656 6.71875C36.2839 5.47301 35.5472 4.34165 34.6028 3.39722C33.6583 2.45278 32.527 1.71609 31.2812 1.23438C29.8242 0.689062 28.2852 0.394786 26.7297 0.364062C24.7297 0.270312 24.0938 0.25 19 0.25Z" fill="white"/>
</svg>
